<mxfile host="65bd71144e">
    <diagram id="C56EoUbyVBaUdMWM-LHC" name="Page-1">
        <mxGraphModel dx="1483" dy="784" grid="1" gridSize="10" guides="1" tooltips="1" connect="1" arrows="1" fold="1" page="1" pageScale="1" pageWidth="850" pageHeight="1100" math="0" shadow="0">
            <root>
                <mxCell id="0"/>
                <mxCell id="1" parent="0"/>
                <mxCell id="actor_user" value="Người dùng" style="shape=umlActor;verticalLabelPosition=bottom;verticalAlign=top;html=1;" vertex="1" parent="1">
                    <mxGeometry x="100" y="80" width="30" height="60" as="geometry"/>
                </mxCell>
                <mxCell id="UI_class" value="&lt;b&gt;:Giao diện&lt;/b&gt;" style="html=1;whiteSpace=wrap;" vertex="1" parent="1">
                    <mxGeometry x="220" y="80" width="100" height="50" as="geometry"/>
                </mxCell>
                <mxCell id="Auth_controller_class" value="&lt;b&gt;:AuthController&lt;/b&gt;" style="html=1;whiteSpace=wrap;" vertex="1" parent="1">
                    <mxGeometry x="380" y="80" width="120" height="50" as="geometry"/>
                </mxCell>
                <mxCell id="User_class" value="&lt;b&gt;:User&lt;/b&gt;" style="html=1;whiteSpace=wrap;" vertex="1" parent="1">
                    <mxGeometry x="560" y="80" width="100" height="50" as="geometry"/>
                </mxCell>
                <mxCell id="Password_class" value="&lt;b&gt;:PasswordService&lt;/b&gt;" style="html=1;whiteSpace=wrap;" vertex="1" parent="1">
                    <mxGeometry x="720" y="80" width="140" height="50" as="geometry"/>
                </mxCell>
                <mxCell id="Session_class" value="&lt;b&gt;:Session&lt;/b&gt;" style="html=1;whiteSpace=wrap;" vertex="1" parent="1">
                    <mxGeometry x="920" y="80" width="100" height="50" as="geometry"/>
                </mxCell>
                <mxCell id="DB_class" value="&lt;b&gt;:Database&lt;/b&gt;" style="html=1;whiteSpace=wrap;" vertex="1" parent="1">
                    <mxGeometry x="1080" y="80" width="100" height="50" as="geometry"/>
                </mxCell>
                <mxCell id="User_line" value="" style="html=1;points=[];perimeter=orthogonalPerimeter;outlineConnect=0;targetShapes=umlLifeline;portConstraint=eastwest;newEdgeStyle={&quot;edgeStyle&quot;:&quot;elbowEdgeStyle&quot;,&quot;elbow&quot;:&quot;vertical&quot;,&quot;curved&quot;:0,&quot;rounded&quot;:0};" vertex="1" parent="1">
                    <mxGeometry x="115" y="160" width="10" height="730" as="geometry"/>
                </mxCell>
                <mxCell id="UI_line" value="" style="html=1;points=[];perimeter=orthogonalPerimeter;outlineConnect=0;targetShapes=umlLifeline;portConstraint=eastwest;newEdgeStyle={&quot;edgeStyle&quot;:&quot;elbowEdgeStyle&quot;,&quot;elbow&quot;:&quot;vertical&quot;,&quot;curved&quot;:0,&quot;rounded&quot;:0};" vertex="1" parent="1">
                    <mxGeometry x="265" y="160" width="10" height="720" as="geometry"/>
                </mxCell>
                <mxCell id="Auth_controller_line" value="" style="html=1;points=[];perimeter=orthogonalPerimeter;outlineConnect=0;targetShapes=umlLifeline;portConstraint=eastwest;newEdgeStyle={&quot;edgeStyle&quot;:&quot;elbowEdgeStyle&quot;,&quot;elbow&quot;:&quot;vertical&quot;,&quot;curved&quot;:0,&quot;rounded&quot;:0};" vertex="1" parent="1">
                    <mxGeometry x="435" y="160" width="10" height="710" as="geometry"/>
                </mxCell>
                <mxCell id="User_class_line" value="" style="html=1;points=[];perimeter=orthogonalPerimeter;outlineConnect=0;targetShapes=umlLifeline;portConstraint=eastwest;newEdgeStyle={&quot;edgeStyle&quot;:&quot;elbowEdgeStyle&quot;,&quot;elbow&quot;:&quot;vertical&quot;,&quot;curved&quot;:0,&quot;rounded&quot;:0};" vertex="1" parent="1">
                    <mxGeometry x="605" y="160" width="10" height="690" as="geometry"/>
                </mxCell>
                <mxCell id="Password_line" value="" style="html=1;points=[];perimeter=orthogonalPerimeter;outlineConnect=0;targetShapes=umlLifeline;portConstraint=eastwest;newEdgeStyle={&quot;edgeStyle&quot;:&quot;elbowEdgeStyle&quot;,&quot;elbow&quot;:&quot;vertical&quot;,&quot;curved&quot;:0,&quot;rounded&quot;:0};" vertex="1" parent="1">
                    <mxGeometry x="785" y="160" width="10" height="690" as="geometry"/>
                </mxCell>
                <mxCell id="Session_line" value="" style="html=1;points=[];perimeter=orthogonalPerimeter;outlineConnect=0;targetShapes=umlLifeline;portConstraint=eastwest;newEdgeStyle={&quot;edgeStyle&quot;:&quot;elbowEdgeStyle&quot;,&quot;elbow&quot;:&quot;vertical&quot;,&quot;curved&quot;:0,&quot;rounded&quot;:0};" vertex="1" parent="1">
                    <mxGeometry x="965" y="160" width="10" height="690" as="geometry"/>
                </mxCell>
                <mxCell id="DB_line" value="" style="html=1;points=[];perimeter=orthogonalPerimeter;outlineConnect=0;targetShapes=umlLifeline;portConstraint=eastwest;newEdgeStyle={&quot;edgeStyle&quot;:&quot;elbowEdgeStyle&quot;,&quot;elbow&quot;:&quot;vertical&quot;,&quot;curved&quot;:0,&quot;rounded&quot;:0};" vertex="1" parent="1">
                    <mxGeometry x="1125" y="160" width="10" height="640" as="geometry"/>
                </mxCell>
                <mxCell id="User_to_line" value="" style="endArrow=none;dashed=1;html=1;rounded=0;exitX=0.5;exitY=1;exitDx=0;exitDy=0;entryX=0.5;entryY=0;entryDx=0;entryDy=0;" edge="1" parent="1" source="actor_user" target="User_line">
                    <mxGeometry width="50" height="50" relative="1" as="geometry">
                        <mxPoint x="390" y="340" as="sourcePoint"/>
                        <mxPoint x="440" y="290" as="targetPoint"/>
                    </mxGeometry>
                </mxCell>
                <mxCell id="UI_class_to_line" value="" style="endArrow=none;dashed=1;html=1;rounded=0;exitX=0.5;exitY=1;exitDx=0;exitDy=0;entryX=0.5;entryY=0;entryDx=0;entryDy=0;" edge="1" parent="1" source="UI_class" target="UI_line">
                    <mxGeometry width="50" height="50" relative="1" as="geometry">
                        <mxPoint x="390" y="340" as="sourcePoint"/>
                        <mxPoint x="440" y="290" as="targetPoint"/>
                    </mxGeometry>
                </mxCell>
                <mxCell id="Auth_controller_to_line" value="" style="endArrow=none;dashed=1;html=1;rounded=0;exitX=0.5;exitY=1;exitDx=0;exitDy=0;entryX=0.5;entryY=0;entryDx=0;entryDy=0;" edge="1" parent="1" source="Auth_controller_class" target="Auth_controller_line">
                    <mxGeometry width="50" height="50" relative="1" as="geometry">
                        <mxPoint x="390" y="340" as="sourcePoint"/>
                        <mxPoint x="440" y="290" as="targetPoint"/>
                    </mxGeometry>
                </mxCell>
                <mxCell id="User_class_to_line" value="" style="endArrow=none;dashed=1;html=1;rounded=0;exitX=0.5;exitY=1;exitDx=0;exitDy=0;entryX=0.5;entryY=0;entryDx=0;entryDy=0;" edge="1" parent="1" source="User_class" target="User_class_line">
                    <mxGeometry width="50" height="50" relative="1" as="geometry">
                        <mxPoint x="390" y="340" as="sourcePoint"/>
                        <mxPoint x="440" y="290" as="targetPoint"/>
                    </mxGeometry>
                </mxCell>
                <mxCell id="Password_to_line" value="" style="endArrow=none;dashed=1;html=1;rounded=0;exitX=0.5;exitY=1;exitDx=0;exitDy=0;entryX=0.5;entryY=0;entryDx=0;entryDy=0;" edge="1" parent="1" source="Password_class" target="Password_line">
                    <mxGeometry width="50" height="50" relative="1" as="geometry">
                        <mxPoint x="390" y="340" as="sourcePoint"/>
                        <mxPoint x="440" y="290" as="targetPoint"/>
                    </mxGeometry>
                </mxCell>
                <mxCell id="Session_to_line" value="" style="endArrow=none;dashed=1;html=1;rounded=0;exitX=0.5;exitY=1;exitDx=0;exitDy=0;entryX=0.5;entryY=0;entryDx=0;entryDy=0;" edge="1" parent="1" source="Session_class" target="Session_line">
                    <mxGeometry width="50" height="50" relative="1" as="geometry">
                        <mxPoint x="390" y="340" as="sourcePoint"/>
                        <mxPoint x="440" y="290" as="targetPoint"/>
                    </mxGeometry>
                </mxCell>
                <mxCell id="DB_to_line" value="" style="endArrow=none;dashed=1;html=1;rounded=0;exitX=0.5;exitY=1;exitDx=0;exitDy=0;entryX=0.5;entryY=0;entryDx=0;entryDy=0;" edge="1" parent="1" source="DB_class" target="DB_line">
                    <mxGeometry width="50" height="50" relative="1" as="geometry">
                        <mxPoint x="390" y="340" as="sourcePoint"/>
                        <mxPoint x="440" y="290" as="targetPoint"/>
                    </mxGeometry>
                </mxCell>
                <mxCell id="reg_title" value="&lt;b&gt;Đăng ký&lt;/b&gt;" style="text;html=1;strokeColor=none;fillColor=none;align=left;verticalAlign=middle;whiteSpace=wrap;rounded=0;" vertex="1" parent="1">
                    <mxGeometry x="40" y="170" width="60" height="30" as="geometry"/>
                </mxCell>
                <mxCell id="msg1" value="1: Nhập thông tin đăng ký" style="html=1;verticalAlign=bottom;endArrow=block;edgeStyle=elbowEdgeStyle;elbow=vertical;curved=0;rounded=0;" edge="1" parent="1" source="User_line" target="UI_line">
                    <mxGeometry width="80" relative="1" as="geometry">
                        <mxPoint x="130" y="200" as="sourcePoint"/>
                        <mxPoint x="210" y="200" as="targetPoint"/>
                        <Array as="points">
                            <mxPoint x="190" y="200"/>
                        </Array>
                    </mxGeometry>
                </mxCell>
                <mxCell id="msg2" value="2: register(name, email, password)" style="html=1;verticalAlign=bottom;endArrow=block;edgeStyle=elbowEdgeStyle;elbow=vertical;curved=0;rounded=0;" edge="1" parent="1">
                    <mxGeometry width="80" relative="1" as="geometry">
                        <mxPoint x="275" y="230" as="sourcePoint"/>
                        <mxPoint x="435" y="230" as="targetPoint"/>
                    </mxGeometry>
                </mxCell>
                <mxCell id="msg3" value="3: hashPassword(password)" style="html=1;verticalAlign=bottom;endArrow=block;edgeStyle=elbowEdgeStyle;elbow=vertical;curved=0;rounded=0;" edge="1" parent="1">
                    <mxGeometry width="80" relative="1" as="geometry">
                        <mxPoint x="445" y="260" as="sourcePoint"/>
                        <mxPoint x="785" y="260" as="targetPoint"/>
                    </mxGeometry>
                </mxCell>
                <mxCell id="msg4" value="4: hashedPassword" style="html=1;verticalAlign=bottom;endArrow=open;dashed=1;endSize=8;edgeStyle=elbowEdgeStyle;elbow=vertical;curved=0;rounded=0;" edge="1" parent="1">
                    <mxGeometry relative="1" as="geometry">
                        <mxPoint x="785" y="290" as="sourcePoint"/>
                        <mxPoint x="445" y="290" as="targetPoint"/>
                    </mxGeometry>
                </mxCell>
                <mxCell id="msg5" value="5: create(name, email, hashedPassword)" style="html=1;verticalAlign=bottom;endArrow=block;edgeStyle=elbowEdgeStyle;elbow=vertical;curved=0;rounded=0;" edge="1" parent="1">
                    <mxGeometry width="80" relative="1" as="geometry">
                        <mxPoint x="445" y="320" as="sourcePoint"/>
                        <mxPoint x="605" y="320" as="targetPoint"/>
                    </mxGeometry>
                </mxCell>
                <mxCell id="msg6" value="6: insert user data" style="html=1;verticalAlign=bottom;endArrow=block;edgeStyle=elbowEdgeStyle;elbow=vertical;curved=0;rounded=0;" edge="1" parent="1">
                    <mxGeometry width="80" relative="1" as="geometry">
                        <mxPoint x="615" y="350" as="sourcePoint"/>
                        <mxPoint x="1125" y="350" as="targetPoint"/>
                    </mxGeometry>
                </mxCell>
                <mxCell id="msg7" value="7: user created" style="html=1;verticalAlign=bottom;endArrow=open;dashed=1;endSize=8;edgeStyle=elbowEdgeStyle;elbow=vertical;curved=0;rounded=0;" edge="1" parent="1">
                    <mxGeometry relative="1" as="geometry">
                        <mxPoint x="1125" y="380" as="sourcePoint"/>
                        <mxPoint x="615" y="380" as="targetPoint"/>
                    </mxGeometry>
                </mxCell>
                <mxCell id="msg8" value="8: user created" style="html=1;verticalAlign=bottom;endArrow=open;dashed=1;endSize=8;edgeStyle=elbowEdgeStyle;elbow=vertical;curved=0;rounded=0;" edge="1" parent="1">
                    <mxGeometry relative="1" as="geometry">
                        <mxPoint x="605" y="410" as="sourcePoint"/>
                        <mxPoint x="445" y="410" as="targetPoint"/>
                    </mxGeometry>
                </mxCell>
                <mxCell id="msg9" value="9: registration successful" style="html=1;verticalAlign=bottom;endArrow=open;dashed=1;endSize=8;edgeStyle=elbowEdgeStyle;elbow=vertical;curved=0;rounded=0;" edge="1" parent="1">
                    <mxGeometry relative="1" as="geometry">
                        <mxPoint x="435" y="440" as="sourcePoint"/>
                        <mxPoint x="275" y="440" as="targetPoint"/>
                    </mxGeometry>
                </mxCell>
                <mxCell id="msg10" value="10: Hiển thị thông báo đăng ký thành công" style="html=1;verticalAlign=bottom;endArrow=open;dashed=1;endSize=8;edgeStyle=elbowEdgeStyle;elbow=vertical;curved=0;rounded=0;" edge="1" parent="1">
                    <mxGeometry relative="1" as="geometry">
                        <mxPoint x="265" y="470" as="sourcePoint"/>
                        <mxPoint x="125" y="470" as="targetPoint"/>
                    </mxGeometry>
                </mxCell>
                <mxCell id="login_title" value="&lt;b&gt;Đăng nhập&lt;/b&gt;" style="text;html=1;strokeColor=none;fillColor=none;align=left;verticalAlign=middle;whiteSpace=wrap;rounded=0;" vertex="1" parent="1">
                    <mxGeometry x="40" y="500" width="60" height="30" as="geometry"/>
                </mxCell>
                <mxCell id="msg11" value="11: Nhập thông tin đăng nhập" style="html=1;verticalAlign=bottom;endArrow=block;edgeStyle=elbowEdgeStyle;elbow=vertical;curved=0;rounded=0;" edge="1" parent="1">
                    <mxGeometry width="80" relative="1" as="geometry">
                        <mxPoint x="125" y="530" as="sourcePoint"/>
                        <mxPoint x="265" y="530" as="targetPoint"/>
                    </mxGeometry>
                </mxCell>
                <mxCell id="msg12" value="12: login(email, password)" style="html=1;verticalAlign=bottom;endArrow=block;edgeStyle=elbowEdgeStyle;elbow=vertical;curved=0;rounded=0;" edge="1" parent="1">
                    <mxGeometry width="80" relative="1" as="geometry">
                        <mxPoint x="275" y="560" as="sourcePoint"/>
                        <mxPoint x="435" y="560" as="targetPoint"/>
                    </mxGeometry>
                </mxCell>
                <mxCell id="msg13" value="13: findUserByEmail(email)" style="html=1;verticalAlign=bottom;endArrow=block;edgeStyle=elbowEdgeStyle;elbow=vertical;curved=0;rounded=0;" edge="1" parent="1">
                    <mxGeometry width="80" relative="1" as="geometry">
                        <mxPoint x="445" y="590" as="sourcePoint"/>
                        <mxPoint x="605" y="590" as="targetPoint"/>
                    </mxGeometry>
                </mxCell>
                <mxCell id="msg14" value="14: query user" style="html=1;verticalAlign=bottom;endArrow=block;edgeStyle=elbowEdgeStyle;elbow=vertical;curved=0;rounded=0;" edge="1" parent="1">
                    <mxGeometry width="80" relative="1" as="geometry">
                        <mxPoint x="615" y="620" as="sourcePoint"/>
                        <mxPoint x="1125" y="620" as="targetPoint"/>
                    </mxGeometry>
                </mxCell>
                <mxCell id="msg15" value="15: user data" style="html=1;verticalAlign=bottom;endArrow=open;dashed=1;endSize=8;edgeStyle=elbowEdgeStyle;elbow=vertical;curved=0;rounded=0;" edge="1" parent="1">
                    <mxGeometry relative="1" as="geometry">
                        <mxPoint x="1125" y="650" as="sourcePoint"/>
                        <mxPoint x="615" y="650" as="targetPoint"/>
                    </mxGeometry>
                </mxCell>
                <mxCell id="msg16" value="16: user" style="html=1;verticalAlign=bottom;endArrow=open;dashed=1;endSize=8;edgeStyle=elbowEdgeStyle;elbow=vertical;curved=0;rounded=0;" edge="1" parent="1">
                    <mxGeometry relative="1" as="geometry">
                        <mxPoint x="605" y="680" as="sourcePoint"/>
                        <mxPoint x="445" y="680" as="targetPoint"/>
                    </mxGeometry>
                </mxCell>
                <mxCell id="msg17" value="17: verifyPassword(password, user.password)" style="html=1;verticalAlign=bottom;endArrow=block;edgeStyle=elbowEdgeStyle;elbow=vertical;curved=0;rounded=0;" edge="1" parent="1">
                    <mxGeometry width="80" relative="1" as="geometry">
                        <mxPoint x="445" y="710" as="sourcePoint"/>
                        <mxPoint x="785" y="710" as="targetPoint"/>
                    </mxGeometry>
                </mxCell>
                <mxCell id="msg18" value="18: valid" style="html=1;verticalAlign=bottom;endArrow=open;dashed=1;endSize=8;edgeStyle=elbowEdgeStyle;elbow=vertical;curved=0;rounded=0;" edge="1" parent="1">
                    <mxGeometry relative="1" as="geometry">
                        <mxPoint x="785" y="740" as="sourcePoint"/>
                        <mxPoint x="445" y="740" as="targetPoint"/>
                    </mxGeometry>
                </mxCell>
                <mxCell id="msg19" value="19: createSession(userId)" style="html=1;verticalAlign=bottom;endArrow=block;edgeStyle=elbowEdgeStyle;elbow=vertical;curved=0;rounded=0;" edge="1" parent="1">
                    <mxGeometry width="80" relative="1" as="geometry">
                        <mxPoint x="445" y="770" as="sourcePoint"/>
                        <mxPoint x="965" y="770" as="targetPoint"/>
                    </mxGeometry>
                </mxCell>
                <mxCell id="msg20" value="20: session created" style="html=1;verticalAlign=bottom;endArrow=open;dashed=1;endSize=8;edgeStyle=elbowEdgeStyle;elbow=vertical;curved=0;rounded=0;" edge="1" parent="1">
                    <mxGeometry relative="1" as="geometry">
                        <mxPoint x="965" y="800" as="sourcePoint"/>
                        <mxPoint x="445" y="800" as="targetPoint"/>
                    </mxGeometry>
                </mxCell>
                <mxCell id="msg21" value="21: login successful" style="html=1;verticalAlign=bottom;endArrow=open;dashed=1;endSize=8;edgeStyle=elbowEdgeStyle;elbow=vertical;curved=0;rounded=0;" edge="1" parent="1">
                    <mxGeometry relative="1" as="geometry">
                        <mxPoint x="435" y="830" as="sourcePoint"/>
                        <mxPoint x="275" y="830" as="targetPoint"/>
                    </mxGeometry>
                </mxCell>
                <mxCell id="msg22" value="22: Chuyển đến trang chính" style="html=1;verticalAlign=bottom;endArrow=open;dashed=1;endSize=8;edgeStyle=elbowEdgeStyle;elbow=vertical;curved=0;rounded=0;" edge="1" parent="1">
                    <mxGeometry relative="1" as="geometry">
                        <mxPoint x="265" y="860" as="sourcePoint"/>
                        <mxPoint x="125" y="860" as="targetPoint"/>
                    </mxGeometry>
                </mxCell>
                <mxCell id="diagram_title" value="&lt;font style=&quot;font-size: 14px;&quot;&gt;&lt;b&gt;1. UserAuthenticationSequence&lt;/b&gt;&lt;/font&gt;" style="text;html=1;strokeColor=none;fillColor=none;align=center;verticalAlign=middle;whiteSpace=wrap;rounded=0;" vertex="1" parent="1">
                    <mxGeometry x="500" y="20" width="220" height="30" as="geometry"/>
                </mxCell>
            </root>
        </mxGraphModel>
    </diagram>
</mxfile>